<svg width="512" height="512" viewBox="0 0 512 512" fill="none" xmlns="http://www.w3.org/2000/svg">
<g clip-path="url(#clip0_4_2)">
<path d="M263.744 54.1867C261.063 54.1823 258.385 54.339 255.723 54.656C242.825 56.7668 230.944 62.9579 221.824 72.32C209.835 84.6933 204.331 96.1067 205.334 113.771C205.12 119.403 209.451 135.595 211.136 140.949C234.923 216.597 255.723 284.949 280.683 360.235C282.39 365.483 284.267 370.603 286.379 375.595C286.806 376.597 287.126 376.576 287.403 375.509C289.046 369.173 291.115 362.453 293.59 355.349C312.662 300.395 331.392 245.696 349.76 191.168C350.286 189.674 350.316 188.051 349.846 186.539C339.73 153.872 329.133 121.357 318.059 89.0027C314.626 81.3153 309.491 74.5091 303.04 69.0987C291.307 59.2853 278.166 54.3147 263.744 54.1867ZM457.408 56.6827C444.27 55.2665 431.04 58.3536 419.886 65.4385C408.732 72.5234 400.314 83.186 396.011 95.68L298.39 379.179C293.354 393.804 294.335 409.831 301.117 423.734C307.898 437.637 319.924 448.276 334.55 453.312L337.11 454.165C351.733 459.201 367.757 458.223 381.659 451.446C395.561 444.669 406.203 432.648 411.243 418.027L508.8 134.549C511.297 127.306 512.341 119.642 511.875 111.995C511.409 104.348 509.441 96.8672 506.083 89.9809C502.725 83.0946 498.043 76.9373 492.305 71.8608C486.567 66.7844 479.885 62.8881 472.64 60.3947C467.67 58.2613 461.846 57.7493 457.366 56.6827H457.408ZM264 84.48C267.977 84.3735 271.934 85.0648 275.639 86.5131C279.344 87.9613 282.722 90.1372 285.572 92.9122C288.422 95.6872 290.688 99.0051 292.235 102.67C293.782 106.335 294.579 110.273 294.579 114.251C294.579 118.229 293.782 122.166 292.235 125.831C290.688 129.496 288.422 132.814 285.572 135.589C282.722 138.364 279.344 140.54 275.639 141.988C271.934 143.437 267.977 144.128 264 144.021C256.107 144.021 248.538 140.886 242.957 135.305C237.376 129.724 234.24 122.154 234.24 114.261C234.24 106.368 237.376 98.7989 242.957 93.2178C248.538 87.6368 256.107 84.48 264 84.48ZM451.926 85.9733C455.919 85.8667 459.894 86.5611 463.614 88.0157C467.335 89.4703 470.727 91.6555 473.589 94.4424C476.451 97.2293 478.726 100.561 480.28 104.242C481.833 107.923 482.634 111.877 482.634 115.872C482.634 119.867 481.833 123.821 480.28 127.502C478.726 131.183 476.451 134.515 473.589 137.302C470.727 140.089 467.335 142.274 463.614 143.728C459.894 145.183 455.919 145.877 451.926 145.771C444.134 145.563 436.732 142.321 431.295 136.737C425.857 131.152 422.815 123.666 422.815 115.872C422.815 108.078 425.857 100.592 431.295 95.0072C436.732 89.4228 444.134 86.1815 451.926 85.9733ZM115.606 162.24C112.253 162.334 108.913 162.705 105.622 163.349C95.05 165.052 85.1681 169.686 77.0989 176.725C71.3501 181.581 66.641 187.547 63.2538 194.266C59.8666 200.986 57.8711 208.32 57.3869 215.829C56.9941 220.429 56.9941 225.054 57.3869 229.653C58.3672 241.775 63.4285 253.206 71.7442 262.08C76.4589 267.157 81.6642 271.765 87.3602 275.904C152.278 323.051 217.067 370.411 281.664 418.069C282.71 418.831 283.841 419.468 285.035 419.968C285.675 419.051 285.718 417.877 285.184 416.405C283.173 408.755 280.917 401.17 278.422 393.664C263.783 349.301 249.418 304.849 235.328 260.309C231.99 249.741 228.455 239.237 224.726 228.8C204.096 210.688 180.395 194.667 160.235 179.691C151.715 172.652 141.861 167.405 131.264 164.267C126.181 162.789 120.898 162.091 115.606 162.24ZM116.032 192.619C123.942 192.619 131.528 195.761 137.121 201.354C142.714 206.947 145.856 214.533 145.856 222.443C145.856 230.352 142.714 237.938 137.121 243.531C131.528 249.125 123.942 252.267 116.032 252.267C108.122 252.267 100.537 249.125 94.9435 243.531C89.3504 237.938 86.2082 230.352 86.2082 222.443C86.2082 214.533 89.3504 206.947 94.9435 201.354C100.537 195.761 108.122 192.619 116.032 192.619ZM63.5949 337.515C47.9575 337.387 34.2615 341.824 22.4855 350.784C12.5371 358.609 5.41998 369.472 2.21887 381.717C0.183638 388.925 -0.467845 396.454 0.298865 403.904C1.46717 416.466 6.6684 428.313 15.1255 437.675C29.2909 450.005 42.0055 455.808 57.7922 457.835C88.0855 457.728 118.379 457.579 148.715 457.408H157.632C206.208 457.344 253.91 457.365 300.694 457.472C303.851 457.579 306.667 457.536 309.056 457.259C310.336 457.152 310.998 456.597 311.019 455.616C305.323 450.68 299.385 446.031 293.227 441.685C246.222 407.835 199.501 373.594 153.067 338.965C152.204 338.32 151.157 337.969 150.08 337.963C121.494 337.899 92.6722 337.728 63.5949 337.515ZM59.5415 367.765C63.5351 367.659 67.5095 368.353 71.2303 369.808C74.951 371.262 78.3427 373.447 81.205 376.234C84.0674 379.021 86.3424 382.353 87.8958 386.034C89.4493 389.715 90.2496 393.669 90.2496 397.664C90.2496 401.659 89.4493 405.613 87.8958 409.294C86.3424 412.975 84.0674 416.307 81.205 419.094C78.3427 421.881 74.951 424.066 71.2303 425.52C67.5095 426.975 63.5351 427.669 59.5415 427.563C51.7502 427.355 44.3478 424.113 38.9106 418.529C33.4734 412.944 30.4309 405.458 30.4309 397.664C30.4309 389.87 33.4734 382.384 38.9106 376.799C44.3478 371.215 51.7502 367.973 59.5415 367.765ZM355.52 367.808C363.441 367.808 371.038 370.955 376.639 376.556C382.24 382.157 385.387 389.754 385.387 397.675C385.387 405.596 382.24 413.192 376.639 418.794C371.038 424.395 363.441 427.541 355.52 427.541C347.599 427.541 340.002 424.395 334.401 418.794C328.8 413.192 325.654 405.596 325.654 397.675C325.654 389.754 328.8 382.157 334.401 376.556C340.002 370.955 347.599 367.808 355.52 367.808Z" fill="#4285F4"/>
</g>
<defs>
<clipPath id="clip0_4_2">
<rect width="512" height="512" fill="white"/>
</clipPath>
</defs>
</svg>
