<svg width="512" height="512" viewBox="0 0 512 512" fill="none" xmlns="http://www.w3.org/2000/svg">
<g clip-path="url(#clip0_1_96)">
<path d="M82.9865 334.336L133.44 9.83468C133.802 7.4276 134.914 5.19611 136.618 3.45813C138.323 1.72015 140.532 0.564341 142.931 0.155358C145.331 -0.253625 147.798 0.105084 149.982 1.18038C152.166 2.25568 153.954 3.99271 155.093 6.14401L209.344 107.925L82.9865 334.336ZM441.259 413.099L393.259 114.432C392.929 112.321 392.02 110.344 390.632 108.72C389.243 107.097 387.431 105.891 385.397 105.238C383.363 104.585 381.188 104.511 379.114 105.023C377.04 105.535 375.149 106.614 373.653 108.139L70.7412 413.12L238.336 507.563C243.508 510.469 249.342 511.995 255.275 511.995C261.208 511.995 267.041 510.469 272.213 507.563L441.259 413.099ZM305.067 152.469L266.24 78.1867C265.26 76.3186 263.788 74.7542 261.983 73.6626C260.178 72.5711 258.109 71.9941 256 71.9941C253.891 71.9941 251.821 72.5711 250.016 73.6626C248.211 74.7542 246.74 76.3186 245.76 78.1867L75.3065 383.659L305.067 152.469Z" fill="#FFCA28"/>
</g>
<defs>
<clipPath id="clip0_1_96">
<rect width="512" height="512" fill="white"/>
</clipPath>
</defs>
</svg>
