<svg width="512" height="512" viewBox="0 0 512 512" fill="none" xmlns="http://www.w3.org/2000/svg">
<g clip-path="url(#clip0_1_100)">
<path d="M502.315 233.173L278.763 9.64266C265.877 -3.22134 245.013 -3.22134 232.085 9.64266L185.771 56.0427L244.651 114.923C258.411 110.336 274.069 113.429 284.949 124.331C295.957 135.317 298.987 151.168 294.293 164.864L350.997 221.611C364.757 216.853 380.587 219.947 391.531 230.891C406.912 246.251 406.912 271.083 391.531 286.443C376.192 301.781 351.403 301.781 336.064 286.443C324.565 274.901 321.685 257.92 327.445 243.861L274.347 191.04V330.24C278.101 332.075 281.643 334.571 284.757 337.664C299.968 353.045 299.968 377.835 284.757 393.131C269.419 408.512 244.459 408.512 229.099 393.131C213.76 377.792 213.76 353.045 229.099 337.707C232.981 333.867 237.355 330.965 242.005 329.045V188.48C237.376 186.539 232.96 183.744 229.205 179.925C217.579 168.299 214.784 151.296 220.757 137.067L162.901 78.9333L9.6 232.128C-3.2 245.035 -3.2 265.92 9.6 278.827L233.173 502.336C246.059 515.221 266.923 515.221 279.808 502.336L502.315 279.829C515.221 266.965 515.221 246.08 502.315 233.173Z" fill="#F05032"/>
</g>
<defs>
<clipPath id="clip0_1_100">
<rect width="512" height="512" fill="white"/>
</clipPath>
</defs>
</svg>
