<svg width="512" height="512" viewBox="0 0 512 512" fill="none" xmlns="http://www.w3.org/2000/svg">
<g clip-path="url(#clip0_1_88)">
<path d="M0 0H512V512H0V0ZM470.059 389.888C466.325 366.528 451.115 346.901 405.995 328.597C390.293 321.237 372.843 316.117 367.659 304.277C365.717 297.237 365.419 293.397 366.677 289.237C369.877 275.456 386.197 271.317 398.997 275.157C407.317 277.717 414.997 284.117 419.819 294.357C441.877 279.936 441.877 279.936 457.259 270.357C451.499 261.397 448.64 257.536 444.757 253.717C431.317 238.677 413.419 230.997 384.299 231.659L369.259 233.557C354.837 237.077 341.099 244.757 332.779 254.997C308.459 282.539 315.477 330.539 344.917 350.379C374.037 372.139 416.619 376.917 422.059 397.419C427.179 422.379 403.499 430.379 380.117 427.499C362.816 423.659 353.237 414.997 342.677 398.997L303.637 421.419C308.117 431.659 313.237 436.117 320.917 445.077C358.037 482.539 450.837 480.619 467.499 423.659C468.117 421.739 472.619 408.619 469.077 388.459L470.059 389.888ZM278.421 235.328H230.464C230.464 276.672 230.272 317.76 230.272 359.168C230.272 385.451 231.616 409.579 227.328 417.003C220.288 431.701 202.155 429.824 193.92 427.243C185.472 423.061 181.184 417.301 176.213 409.003C174.869 406.763 173.867 404.821 173.504 404.821L134.571 428.821C141.077 442.261 150.571 453.824 162.816 461.184C181.056 472.064 205.568 475.584 231.232 469.824C247.936 465.003 262.336 455.083 269.867 439.723C280.747 419.883 278.443 395.563 278.336 368.341C278.592 324.523 278.336 280.683 278.336 236.523L278.421 235.328Z" fill="#F7DF1E"/>
</g>
<defs>
<clipPath id="clip0_1_88">
<rect width="512" height="512" fill="white"/>
</clipPath>
</defs>
</svg>
