<svg width="512" height="512" viewBox="0 0 512 512" fill="none" xmlns="http://www.w3.org/2000/svg">
<g clip-path="url(#clip0_1_98)">
<path d="M255.957 512C249.109 512 242.283 510.208 236.288 506.731L173.653 469.675C164.309 464.448 168.875 462.592 171.947 461.504C184.427 457.173 186.944 456.171 200.277 448.619C201.664 447.829 203.499 448.128 204.928 448.981L253.056 477.547C254.805 478.507 257.259 478.507 258.859 477.547L446.485 369.259C448.235 368.256 449.344 366.251 449.344 364.181V147.648C449.344 145.536 448.213 143.552 446.421 142.485L258.88 34.2827C257.152 33.28 254.848 33.28 253.099 34.2827L65.6 142.507C63.7867 143.552 62.6347 145.6 62.6347 147.648V364.181C62.6347 366.251 63.7867 368.213 65.6 369.195L116.992 398.891C144.875 412.843 161.963 396.416 161.963 379.904V166.123C161.963 163.093 164.395 160.725 167.424 160.725H191.211C194.176 160.725 196.651 163.115 196.651 166.123V379.904C196.651 417.131 176.384 438.464 141.099 438.464C130.261 438.464 121.707 438.464 97.8774 426.709L48.64 398.4C36.48 391.381 28.9707 378.24 28.9707 364.181V147.648C28.9707 133.589 36.5014 120.448 48.64 113.451L236.267 5.03466C248.149 -1.68534 263.915 -1.68534 275.691 5.03466L463.296 113.451C475.456 120.469 483.008 133.589 483.008 147.648V364.181C483.008 378.24 475.456 391.339 463.296 398.4L275.691 506.731C269.717 510.208 262.912 512 255.957 512ZM407.445 298.517C407.445 257.984 380.053 247.189 322.389 239.573C264.128 231.872 258.197 227.883 258.197 214.251C258.197 202.987 263.211 187.947 306.368 187.947C344.917 187.947 359.125 196.245 364.971 222.229C365.483 224.683 367.723 226.475 370.24 226.475H394.581C396.096 226.475 397.525 225.813 398.549 224.747C399.573 223.595 400.128 222.123 399.979 220.565C396.203 175.808 366.464 154.944 306.368 154.944C252.864 154.944 220.949 177.515 220.949 215.381C220.949 256.448 252.693 267.797 304.043 272.875C365.483 278.891 370.24 287.872 370.24 299.947C370.24 320.917 353.408 329.856 313.877 329.856C264.235 329.856 253.312 317.397 249.643 292.693C249.216 290.048 246.955 288.107 244.245 288.107H219.989C216.981 288.107 214.571 290.496 214.571 293.504C214.571 325.12 231.765 362.795 313.877 362.795C373.355 362.816 407.445 339.413 407.445 298.517Z" fill="#339933"/>
</g>
<defs>
<clipPath id="clip0_1_98">
<rect width="512" height="512" fill="white"/>
</clipPath>
</defs>
</svg>
