<svg width="512" height="512" viewBox="0 0 512 512" fill="none" xmlns="http://www.w3.org/2000/svg">
<g clip-path="url(#clip0_1_94)">
<path d="M287.236 423.029H477.568C483.614 423.029 489.553 421.487 494.788 418.554C499.99 415.655 504.337 411.437 507.392 406.325C510.406 401.274 511.998 395.503 512 389.621C511.993 383.74 510.395 377.97 507.377 372.922L379.554 158.17C376.499 153.06 372.153 148.844 366.953 145.946C361.691 143.006 355.764 141.464 349.737 141.468C343.693 141.468 337.756 143.012 332.521 145.943C327.32 148.843 322.974 153.059 319.919 158.17L287.236 213.12L223.334 105.673C220.277 100.563 215.928 96.3468 210.726 93.4485C205.464 90.5099 199.536 88.9689 193.508 88.9728C187.462 88.9728 181.525 90.5152 176.288 93.4464C171.086 96.3447 166.738 100.56 163.68 105.67L4.62507 372.924C1.6065 377.971 0.00845071 383.74 2.14482e-06 389.621C-0.00213119 395.486 1.5872 401.248 4.608 406.325C7.66299 411.437 12.0099 415.655 17.2117 418.554C22.4469 421.487 28.3861 423.029 34.432 423.029H153.905C201.244 423.029 236.154 402.861 260.173 363.511L318.492 265.545L349.728 213.12L443.475 370.603H318.492L287.236 423.029ZM151.957 370.547L68.5803 370.528L193.564 160.563L255.925 265.545L214.172 335.714C198.219 361.244 180.098 370.547 151.957 370.547Z" fill="#00DC82"/>
</g>
<defs>
<clipPath id="clip0_1_94">
<rect width="512" height="512" fill="white"/>
</clipPath>
</defs>
</svg>
