<svg width="512" height="512" viewBox="0 0 512 512" fill="none" xmlns="http://www.w3.org/2000/svg">
<g clip-path="url(#clip0_1_107)">
<path d="M24 0C10.7093 0 0 10.7093 0 24V488C0 501.291 10.7093 512 24 512H488C501.291 512 512 501.291 512 488V24C512 10.7093 501.291 0 488 0H24ZM394.411 208C407.467 208 419.029 208.789 429.12 210.368C438.637 211.794 447.977 214.225 456.981 217.621V270.059C452.659 267.069 448.067 264.491 443.264 262.357C438.311 260.129 433.198 258.275 427.968 256.811C418.061 254.05 407.831 252.615 397.547 252.544C391.147 252.544 385.323 253.141 380.075 254.379C375.397 255.379 370.91 257.122 366.784 259.541C363.157 261.76 360.384 264.427 358.4 267.52C356.405 270.638 355.366 274.272 355.413 277.973C355.413 282.155 356.544 285.931 358.741 289.259C360.96 292.587 364.117 295.744 368.192 298.731C372.267 301.717 377.216 304.619 383.04 307.477C388.864 310.357 395.456 313.323 402.795 316.352C412.821 320.555 421.824 325.035 429.803 329.749C437.781 334.485 444.629 339.84 450.347 345.813C456.064 351.765 460.416 358.571 463.445 366.229C466.475 373.888 468.011 382.784 468.011 392.96C468.011 406.976 465.344 418.773 460.053 428.288C454.884 437.672 447.466 445.625 438.464 451.435C428.761 457.587 418.007 461.897 406.741 464.149C394.667 466.709 381.931 467.989 368.555 467.989C355.39 468.047 342.248 466.876 329.301 464.491C318.1 462.553 307.236 459.011 297.045 453.973V397.867C316.326 414.275 340.784 423.342 366.101 423.467C373.205 423.467 379.413 422.827 384.704 421.547C390.016 420.267 394.432 418.475 397.995 416.213C401.536 413.909 404.181 411.221 405.952 408.107C407.909 404.48 408.799 400.374 408.52 396.263C408.241 392.151 406.803 388.203 404.373 384.875C401.204 380.68 397.327 377.071 392.917 374.208C387.449 370.583 381.691 367.415 375.701 364.736C368.603 361.494 361.44 358.393 354.219 355.435C334.635 347.264 320.043 337.259 310.421 325.461C300.821 313.664 296 299.392 296 282.688C296 269.589 298.624 258.347 303.872 248.939C309.12 239.531 316.245 231.787 325.291 225.707C334.858 219.395 345.479 214.85 356.651 212.288C369.024 209.371 381.699 207.931 394.411 208ZM72 212.011H276.011V258.219H202.795V464H144.832V258.219H72V212.011Z" fill="#3178C6"/>
</g>
<defs>
<clipPath id="clip0_1_107">
<rect width="512" height="512" fill="white"/>
</clipPath>
</defs>
</svg>
