<svg width="512" height="512" viewBox="0 0 512 512" fill="none" xmlns="http://www.w3.org/2000/svg">
<g clip-path="url(#clip0_1_92)">
<path d="M176.768 225.664L187.691 40.9813C187.778 39.5362 188.342 38.161 189.296 37.072C190.25 35.9829 191.539 35.2419 192.96 34.9653L370.709 0.127995C371.807 -0.0875846 372.942 -0.0174262 374.005 0.331739C375.068 0.680904 376.023 1.29736 376.779 2.12195C377.535 2.94654 378.067 3.9516 378.322 5.04069C378.578 6.12977 378.55 7.26634 378.24 8.34133L345.003 123.605C344.694 124.678 344.666 125.812 344.921 126.899C345.176 127.986 345.706 128.99 346.459 129.814C347.212 130.637 348.164 131.254 349.224 131.605C350.284 131.957 351.416 132.03 352.512 131.819L403.456 122.005C404.655 121.771 405.895 121.878 407.036 122.313C408.177 122.748 409.174 123.495 409.911 124.469C410.649 125.442 411.099 126.603 411.21 127.819C411.321 129.036 411.088 130.259 410.539 131.349L265.685 420.416L263.061 424.469C262.497 425.387 261.706 426.144 260.765 426.667C259.823 427.19 258.763 427.462 257.685 427.456C253.909 427.456 250.219 424.213 251.179 419.584L274.539 306.496C274.768 305.388 274.706 304.24 274.357 303.164C274.009 302.087 273.388 301.12 272.553 300.356C271.718 299.593 270.7 299.059 269.597 298.808C268.494 298.556 267.344 298.596 266.261 298.923L235.691 308.203C234.608 308.532 233.459 308.575 232.355 308.327C231.251 308.079 230.231 307.548 229.394 306.786C228.557 306.025 227.933 305.059 227.582 303.983C227.231 302.908 227.165 301.759 227.392 300.651L242.112 228.651C242.335 227.576 242.284 226.462 241.962 225.412C241.641 224.362 241.06 223.41 240.273 222.645C239.486 221.879 238.519 221.324 237.46 221.032C236.402 220.739 235.287 220.718 234.219 220.971L184.725 232.405C183.738 232.632 182.711 232.626 181.726 232.387C180.741 232.148 179.825 231.684 179.051 231.029C178.276 230.375 177.665 229.55 177.265 228.619C176.865 227.687 176.688 226.676 176.747 225.664H176.768ZM496.256 56.576L368.725 79.7867L357.12 120.043L401.429 111.509C404.863 110.825 408.424 111.213 411.63 112.621C414.836 114.029 417.531 116.389 419.349 119.381C420.893 121.87 421.771 124.713 421.898 127.638C422.025 130.564 421.397 133.473 420.075 136.085L275.2 425.173L274.923 425.707L274.603 426.197L272 430.251C270.462 432.661 268.343 434.646 265.838 436.025C263.334 437.404 260.523 438.133 257.664 438.144C255.075 438.13 252.52 437.545 250.183 436.432C247.845 435.318 245.781 433.703 244.139 431.701C242.541 429.724 241.405 427.414 240.815 424.941C240.224 422.468 240.194 419.894 240.725 417.408L262.677 311.147L238.784 318.4C235.516 319.385 232.029 319.379 228.764 318.384C225.499 317.39 222.602 315.45 220.437 312.811C218.824 310.84 217.671 308.535 217.062 306.062C216.453 303.589 216.403 301.012 216.917 298.517L230.357 232.811L187.115 242.795C184.187 243.465 181.136 243.359 178.262 242.487C175.388 241.616 172.792 240.008 170.731 237.824C169.133 236.115 167.898 234.099 167.103 231.899C166.307 229.699 165.966 227.36 166.101 225.024L174.4 84.864L15.6801 56.4907C13.2346 56.0493 10.714 56.3151 8.41432 57.2567C6.11465 58.1983 4.13145 59.7766 2.6977 61.8063C1.26396 63.8359 0.439214 66.2326 0.320365 68.7147C0.201515 71.1968 0.793493 73.6613 2.02676 75.8187L247.04 505.408C248.185 507.419 249.843 509.089 251.845 510.248C253.848 511.408 256.122 512.014 258.436 512.005C260.749 511.997 263.019 511.373 265.013 510.199C267.006 509.025 268.652 507.342 269.781 505.323L509.995 75.776C511.199 73.6148 511.764 71.1559 511.625 68.6859C511.485 66.2158 510.647 63.8362 509.207 61.8242C507.767 59.8123 505.786 58.2508 503.493 57.3216C501.2 56.3924 498.69 56.1339 496.256 56.576Z" fill="#646CFF"/>
</g>
<defs>
<clipPath id="clip0_1_92">
<rect width="512" height="512" fill="white"/>
</clipPath>
</defs>
</svg>
